# xmcd CD database file
#
# Track frame offsets:
#	150
#	18339
#	35296
#	53873
#	71492
#	88425
#	114196
#	130322
#	143072
#	165510
#	180738
#	215086
#
# Disc length: 3096 seconds
#
# Revision: 0
# Processed by: cddbd v1.4b42PL0 Copyright (c) Steve Scherf et al.
# Submitted via: Feurio! 1.61 - http://www.feurio.com
#
DISCID=a70c160c
DTITLE=Earth Wind and Fire - The best of Vol. 1
DYEAR=1900
DGENRE=
TTITLE0=Got to get you into my life
TTITLE1=Fantasy
TTITLE2=Can't hide love
TTITLE3=Love music
TTITLE4=Get away
TTITLE5=That's the way of the world
TTITLE6=September
TTITLE7=Shining star
TTITLE8=Reasons
TTITLE9=Sing a song
TTITLE10=Megamix 2000
TTITLE11=Megamix (radio edit)
EXTD=
EXTT0=
EXTT1=
EXTT2=
EXTT3=
EXTT4=
EXTT5=
EXTT6=
EXTT7=
EXTT8=
EXTT9=
EXTT10=
EXTT11=
PLAYORDER=
